<svg width="119" height="119" viewBox="0 0 119 119" fill="none" xmlns="http://www.w3.org/2000/svg">
<circle cx="59.5" cy="59.5" r="59.5" fill="#7C3C21"/>
<path d="M59.7486 60.75L59.5404 61.6361L57.9199 68.5292L59.7486 76.5829L61.5773 68.5292L59.957 61.6361L59.7486 60.75Z" fill="white"/>
<path d="M89.4831 82.3894L86.7749 62.2042C86.1963 57.8915 83.0682 54.4557 78.9911 53.6545L72.1019 52.3008C71.599 52.9719 71.0447 53.605 70.4419 54.1921C69.6786 54.9356 68.8517 55.5951 67.9706 56.1636L66.7344 61.6076L61.542 84.475H87.7569C88.2616 84.475 88.7415 84.2452 89.0726 83.8452C89.4037 83.4452 89.5534 82.9142 89.4831 82.3894Z" fill="white"/>
<path d="M51.5294 56.1637C50.6485 55.5952 49.8217 54.936 49.0584 54.1925C48.4555 53.6053 47.9011 52.9721 47.3981 52.3008L40.5089 53.6546C36.4319 54.4558 33.3037 57.8917 32.7251 62.2043L30.017 82.3894C29.9467 82.9143 30.0963 83.4453 30.4274 83.8453C30.7584 84.2453 31.2384 84.475 31.7431 84.475H57.958L52.7657 61.6077L51.5294 56.1637Z" fill="white"/>
<path d="M71.9963 42.0839V40.3641H70.2532C67.3335 40.3641 64.8942 39.0825 63.199 36.6578C63.1054 36.524 63.0167 36.3902 62.9327 36.2574C60.499 38.9434 56.8286 40.3011 51.976 40.3011H47.5049V42.0838C47.5049 45.8035 49.0175 49.1586 51.43 51.5085C52.3533 52.4078 53.4084 53.1597 54.5612 53.7283L56.1575 60.7584L57.5727 54.7379C58.2796 54.8716 59.0074 54.9417 59.7505 54.9417C60.4935 54.9417 61.2214 54.8716 61.9283 54.7379L63.3435 60.7584L64.9398 53.7283C66.0927 53.1595 67.1478 52.4076 68.0712 51.5082C70.4838 49.1584 71.9963 45.8033 71.9963 42.0839V42.0839Z" fill="white"/>
<path d="M51.976 36.6408C56.9488 36.6408 60.1279 35.0546 61.6951 31.7917C62.0264 31.1021 62.7339 30.7049 63.4644 30.7993C64.1945 30.8937 64.7897 31.4591 64.9518 32.2126C64.952 32.2136 65.2353 33.4259 66.0736 34.582C67.1088 36.0097 68.4759 36.7037 70.2531 36.7037H71.9963V34.8581C71.9964 27.7681 66.503 22 59.7506 22C52.9983 22 47.5049 27.7681 47.5049 34.858V36.6406H51.976V36.6408Z" fill="white"/>
</svg>
